# xmcd CD database file
#
# Track frame offsets:
#	150
#	20045
#	31520
#	55705
#	86727
#	94527
#	110202
#	138775
#	157605
#
# Disc length: 2528 seconds
#
# Revision: 2
# Processed by: cddbd v1.5.2PL0 Copyright (c) Steve Scherf et al.
# Submitted via: CDex 1.51
#
DISCID=6009de09
DTITLE=Jean-Pierre Mas - Rue de Lourmel
DYEAR=1976
DGENRE=Jazz
TTITLE0=Perfume de Mulata
TTITLE1=Chimel
TTITLE2=Ada
TTITLE3=Ballade pour Cecile
TTITLE4=Rue de Lourmel
TTITLE5=Chigaliga
TTITLE6=Je ne sais pas encore
TTITLE7=Moja
TTITLE8=Pasolini
EXTD=YEAR: 1976
EXTT0=
EXTT1=
EXTT2=
EXTT3=
EXTT4=
EXTT5=
EXTT6=
EXTT7=
EXTT8=
PLAYORDER=
